# xmcd
#
# Track frame offsets:
#	150
#	17505
#	31798
#	48648
#	63433
#	78497
#	93859
#	106601
#	124483
#	139815
#	153802
#	170257
#	182286
#	195027
#	205959
#	216214
#
# Disc length: 3047 seconds
#
# Revision: 1
# Processed by: cddbd v1.4PL0 Copyright (c) Steve Scherf et al.
# Submitted via: audiograbber 1.81.03
#
DISCID=c40be510
DTITLE=Dolly Parton - Love Songs
DYEAR=2002
DGENRE=Country
TTITLE0=We Had It All
TTITLE1=Sweet Music Man
TTITLE2=My Girl (My Love)
TTITLE3=Almost In Love
TTITLE4=Sandy's Song
TTITLE5=We'll Sing In The Sunshine
TTITLE6=The Love I Used To Call Mine
TTITLE7=Starting Over Again
TTITLE8=Think About Love
TTITLE9=I Will Always Love You
TTITLE10=She Don't Love You (Like I Love You)
TTITLE11=To Daddy
TTITLE12=The Fire's Still Burning
TTITLE13=Lette To Heaven
TTITLE14=My Blue Tears
TTITLE15=The Way I See You
EXTD=
EXTT0=
EXTT1=
EXTT2=
EXTT3=
EXTT4=
EXTT5=
EXTT6=
EXTT7=
EXTT8=
EXTT9=
EXTT10=
EXTT11=
EXTT12=
EXTT13=
EXTT14=
EXTT15=
PLAYORDER=
